<svg width="32" height="32" fill="none" xmlns="http://www.w3.org/2000/svg"><rect width="32" height="32" rx="4" fill="#83B3D3"/><path d="M4.25439 8.18188 15.9271 21.9637 27.5635 8.25461 4.25439 8.18188Z" fill="#23A9E1"/><path d="M13.1275 13.3455h6.2909c-.4727-.2909-1.6-1.6727-2.1818-1.1636-.0364.0364-1.7818-2.0727-2.9091-1.0545-.9818.909-1.4546-.1091-2.5455.5818-1.3091.8727.7273 1.3454 1.3455 1.6363Zm9.7091-1.2727-3.5637.0364c1.4182-1.6364 2.0364-1.4546 3.5637-.0364Z" fill="#fff"/><path d="M26.4 9.30909v-.87273h.7636l-.7636.87273ZM8.50909 12.7273c.03637.0363.87273-.8728 2.21821-1.7818 1.2363-.8364 3.1272-1.78186 5.2363-1.78186 2.1091 0 4.0364.98186 5.2728 1.81816 1.3454.8727 2.1818 1.7455 2.2181 1.7818l-.909 1.0909c-1.6364.2182-2.8 1.4182-4.4 1.1637-.8-.1455-.8364-.5818-1.0546-1.0546-.1818-.3636-.4727-.2909-.8364-.4363-.3272-.1455-.5454-.4-1.2363-.2546-.5818.1455-.6546 1.0546-1.4182 1.0182-.4-.0364-.4364-.5818-1.0182-1.3091-1.4909-1.7818-2.85068-1.5598-3.79613.0765l-.27658-.331ZM5.45455 8.43636v.69091l-.58182-.69091h.58182Zm19.59995 0h1.1637v1.09091l-1.1637 1.38183V8.43636Zm-1.4909 4.14544V8.43636h1.2728v2.69094l-1.2728 1.4545ZM23.3818 8.8v3.6c-.4-.4-.8363-.7636-1.3091-1.0909L23.3818 8.8Zm-1.4909-.10909v2.47269c-.1818-.1091-.3273-.2545-.5454-.3636-.2546-.1455-.5091-.3273-.8-.4727l1.3454-1.63639Zm-1.6-.07273v1.56362c-.3636-.1818-.7636-.36362-1.1273-.54544l1.1273-1.01818Zm.2182-.18182h1.3454l-1.3454 1.67274V8.43636Zm1.5636 0h1.3091l-1.3091 2.58184V8.43636Zm-3.2 0h1.4182l-1.2727 1.12728c-.0364 0-.0727-.03637-.1091-.03637l-.0364-1.09091Zm-.1818.14546v.87273c-.3636-.14546-.7273-.25455-1.1273-.32728l1.1273-.54545Zm-1.5273 0v.47273c-.2545-.03637-.5091-.07273-.8-.1091l.8-.36363Zm-2.4727 0 .8.36363c-.2909 0-.5454.03637-.8.1091v-.47273Zm-1.4909 0 1.1273.54545c-.4.07273-.7637.18182-1.1273.32728v-.87273Zm1.3091.43636-1.2-.58182h1.2v.58182Zm1.2727-.14545L14.7636 8.4h1.0182v.47273Zm.2546-.43637h1.0545l-1.0545.47273v-.47273Zm1.3454 0h1.1637l-1.1637.58182v-.58182Zm-4.5091 1.12728L11.6 8.43636h1.4182v1.09091l-.1455.03637Zm-1.3091-.94546L12.6909 9.6c-.4.14545-.7636.32727-1.1273.5455V8.61818ZM10 8.69091l1.3091 1.63639c-.4727.2545-.9091.5454-1.3091.8727V8.69091ZM8.47273 8.8l1.30909 2.5455c-.47273.3636-.90909.7272-1.30909 1.1636V8.8Zm1.34545 2.1818L8.50909 8.4h1.30909v2.5818Zm1.56362-.9091L10.0364 8.4h1.3454v1.6727ZM6.8 10.7273 5.63636 9.34545v-.90909H6.8v2.29094Zm.21818-2.29094h1.27273v4.07274l-1.27273-1.5273V8.43636ZM4 8v5.3091l12 14.5091 12-14.3637V8H4Z" fill="#491213"/><path d="m15.0547 24.7272.9455-1.5272.9454 1.5272-.9454 1.5273-.9455-1.5273Z" fill="#23A9E1"/><path d="M17.8907 19.1272c-1.2363-.7273-.9454-1.2727.0728-1.7818.5454-.2545 1.7454-1.2364 2.2182-.9091l-2.291 2.6909Zm-.8363.9091c-.7273-.0364-1.5637-.1454-2.2909.0364.4363.1091 1.5272.4363.5091.6909.3636.5091.9454.4727 1.3091.0363-.1455-.0727-.2546-.1818-.3637-.2545.4-.1091.7637-.3273.8364-.5091Zm.4363-.5818c-.3272-.2909-.6909-.2909-.9818 0-.4363-.7636-1.9636-.5091-2.6909-.6182.4.9455 3.4909 1.1273 3.6727.6182Zm-2.4727-.8c-.5818-.1818-2.4727-.1455-1.2363-.6546.4-.1454 2.4363.0364 1.2363.6546Zm.7273-1.0909c-.1818-.4.1454-.8728.6182-.5091.4363.2909-.2182.7273-.6182.5091Zm-1.0545.0363c-.8364.2546-1.9273-.2909-.5819-.5454.8364-.1818 1.7091.1818.5819.5454.0363 0-.0364 0 0 0Zm-.9455-2.2545c-.1818.5818-.5455.6909-.5091 0 .0364-.8364.5818-.6182 1.1636-.9455.4728-.2545.7273-1.2363 1.5637-.6545.3636.2545.8.0364.9091.4364 0-.0364-1.0546 2.4363-.4728 2.4363-1.1636 0-.6545-1.3818-.2181-2.3273-.4364.2182-1.1273 1.5637-.5455 1.8182-.2909.4-1.2364.9455-1.7091.5455-.4-.3637-.1818-.8364-.1818-1.3091Zm-1.4545 1.0182c-2.0364 0-.6546-3.1273.0363-2.9455.8.2546.6909 2.9818-.0363 2.9455Zm-2.2546-2.9818c-.94545-.0364-.54545-.9455.1091-1.1273.6182-.1818 1.8909.4 2.3273.8-.6546.2182-1.4909.1818-2.2182.2182-.0727-.7273-.25456-.4728-.2182.1091Z" fill="#DC6243"/><path d="M17.0183 17.3819c-1.0545-1.0909 1.5637-.9818 2-1.3818.291.1091 2.5455-1.9637 3.091-1.8182-.4.4727-1.2364 1.9273-1.8182 1.9273-.4728 0-.9455-.0728-1.3091.2545-.5455.5091-1.4182.7636-1.9637 1.0182Z" fill="#F49774"/><path d="M17.3457 16.0727c-.5818.3273-1.1273-.9091-.1091-.8.6546.0727 1.3455-.0727 1.9636.0364-.4727.5454-1.1272.8363-1.8545.7636Z" fill="#F4B1A4"/><path d="M9.49066 15.5999c.10909.1455.21818.291.18182.5091 0 .1455-.21818.3637-.07273.4364l.54545-.6545c-.14545-.0364-1.27272-1.3819-1.27272-1.5273l-.76364.4c.03637.1454.29091 0 .43637 0 .18182 0 .32727.1454.47272.2545-.4.3273-1.38181 1.2-1.4909 1.2-.03637 0-.25455-.1454-.25455 0 0 .0728.21818.2546.25455.2909l.50909.6182c.14545-.0727-.03637-.1818.03636-.2909.03636-.0727 1.16364-.9818 1.41818-1.2364ZM8.2543 13.9636c.10909-.0364.14545.1091.21818 0l-.58182-.6909c-.07273-.1091-.18182-.2182-.18182 0 .03637.1454-1.45454 1.3454-1.52727 1.3818-.10909.0364-.18182-.1091-.25454.0364.18181.2181.32727.4.50909.6181.07272.0728.10909.1455.18181.2182.07273.0727.03637-.1454.03637-.1454-.03637-.1091.10909-.2182.21818-.2909.36364-.3637 1.27273-1.1273 1.38182-1.1273Zm-2.07273-.2182c-.4.1091-.87273-.0364-.98182-.4727-.14545-.4364.14546-.8728.47273-1.1273.32727-.2545.83636-.2182 1.01818.1818.07273.1818.03637.4-.03636.5818-.03637.1091-.14546.2182 0 .2909.21818-.2545.4-.509.61818-.7636-.25455-.1454-.36364-.4-.54545-.6182-.21819-.2545-.47273-.5091-.83637-.5454-.69091-.1091-1.30909.6182-1.38182 1.2363-.03636.3273.07273.6546.29091.9455.18182.2182.43637.4.58182.6545.07273.0364.65455-.2545.76364-.2909.07272 0 .03636-.0363.03636-.0727-.18182.0727 0 0 0 0Zm9.27273 8.5818c-.2545-.1818-.9455-1.0909-1.0909-1.2727l-.0727-.1091-.0728.0364c-.0363.0363.0364.1454 0 .2181-.1818.2909-1.3454 1.1637-1.4181 1.2364-.1455.0727-.291-.0364-.3637.0727.1818.2182.6546.8364.7273.8364.1091 0 .0364-.1818.0364-.2182.0363-.0727.6181-.5818.8363-.7636.0727-.0728.1455.1091.2182.1818.0727.1091.1091.2545.0727.3636-.0363.0728-.1818.2182-.0727.2909.1455-.1818.5455-.6545.6182-.7272.0727-.0728-.1455 0-.1091-.0364-.0727.0364-.1818.0727-.2546 0-.0363 0-.2545-.2545-.2181-.2909.1091-.0727.2181-.2182.3636-.2545.2182-.0364.3636.3636.4.509.0364.1455.0364.291-.0364.4-.0363.1091-.1091.1819 0 .2182l.5091-.6909c0 .0364-.0363.0364-.0727 0-.0364 0 .0364.0364 0 0Zm-3.3455-3.2364c-.2545 0-.509.1091-.7272.291-.5091.4363-.5818 1.2-.1818 1.7454.4727.6182 1.2363.6909 1.8545.2546.5091-.4364.5818-1.2.1818-1.7455-.2909-.3636-.7273-.5455-1.1273-.5455Zm.4364.5091c.3273-.0363.5455.291.4.6546-.1454.3636-.5091.7273-.8727.8727-.4364.1818-.7273-.1818-.5455-.6182.1455-.3636.5091-.7272.8728-.8727.0363 0 .0727-.0364.1454-.0364Zm-1.0182-1.6727c.1091 0 .2182.1455.2909 0l-.5091-.6182c-.1454.0728 0 .1455-.0363.2182-.0727.1091-.6182.1818-.7637.2182.0364-.1455.2182-.6182.291-.6546.1454-.109.2181.1091.2909-.0363l-.6546-.7636c-.0727-.0728-.1454-.2546-.2182-.1455 0 0 0 .3636-.0363.4-.0364.0727-.21821.8727-.43639 1.0545-.10909.1091-.54546.4728-.65455.5091-.10909.0364-.18182-.1454-.29091 0l.58182.6909c.03636.0364.14546.2182.18182.2182.10909.0364 0-.2182.03636-.2545.03637-.1091.58185-.6546.83635-.6909.3273-.0728.7273-.1819 1.0909-.1455.0728 0-.0727 0 0 0Zm8.8 2.4364c.0364.1454.0728.3272.0364.4727-.0364.2182-.2182.6909-.5091.5455-.2909-.1455-.5091-.4-.7636-.6182.1818-.2182.3636-.4.6909-.2909.0727.0363.1454 0 .0727-.0728-.1091-.0727-.7273-.4727-.7636-.4363-.0728.0727.1091.2182.0363.3636-.0363.1091-.1454.1818-.2182.2909-.1818-.1454-.4363-.2909-.2545-.5454.1455-.1455.2909-.2909.5091-.3273.1454-.0364.4364.1091.4727-.0364-.2545-.1091-.5091-.2545-.7636-.3636.0363.1818-.8 1.0545-.9818 1.2727-.0364.0364-.1455.1455-.1455.1818 0 .1091.1455.0364.1455.0364.1091-.0364 1.6 1.2 1.6363 1.3091.0364.0727-.0363.1454 0 .1818 0 0 .0364.0364.0728.0364.109-.1091 1.0545-1.4182 1.2727-1.4546-.1818-.2909-.3637-.5818-.5455-.8727-.1454.0727-.0363.2545 0 .3273Zm-1.4545 1.6c-.4727-.3273-1.3091.2909-1.4546.3636-.2545.1091-.4363-.1454-.2909-.3636.1091-.1818.3273-.2909.5455-.2909.0727 0 .3273.0363.3273 0 .0363-.0364.0363-.0364 0-.0728-.2182-.1454-.4-.2909-.6182-.4-.0364.2546-.3273.4-.4728.5819-.1818.2181-.3636.4727-.3636.7272 0 .2546.1455.5091.4.6182.2546.1455.5455.0364.8-.1091.1455-.1091.2909-.2182.4364-.2909.2182-.1091.5454 0 .4727.2909-.0727.2546-.3273.4727-.5818.5455-.1455.0363-.2909.0363-.4364-.0364-.1091-.0363-.2182-.1818-.2909-.0364l.8364.5819c.0363-.1818.1091-.2546.2545-.3637.1818-.1454.3273-.3272.4727-.5091.291-.3272.4-.9091-.0363-1.2363Zm6.4-10.2182c0 .0364 0 .0364 0 0l-.3273.3636-.2909.3637c-.0727.0727-.1091.1091 0 .1818.1818-.1091 1.2727 1.7454 1.2 2-.1818.0727-1.6364-1.2-1.6727-1.2727 0-.0364.0727-.2546-.0364-.2182-.0364 0-.1818.2182-.2182.2545l-.2182.2546c.0728.1091.1091 0 .2182 0 .0728.0363.4364.3272.5455.4-.1818 0-.6182.0363-.6909.0363-.2182.0364-.1091-.1454-.2546-.2181l-.5454.6545-.3273.3636v.0364c.0727.0727.0364.0364.1455 0 .109-.0364 1.5636 1.1636 1.6 1.2364.0727.1091-.0364.2181.109.2909l.4364-.5091c.0364-.0364.0364-.0364 0-.0364-.1091-.0727-.1091.0364-.2545.0364-.1091-.0364-1.0546-.8-1.3819-1.0909l1.9273-.0728c.0727 0 .2546.2182.2546.291-.0364.0727-.1091.1454 0 .1818.1091-.1455.2181-.2546.3272-.4l.0364-.0728c.0364 0 .0364-.0363.0364-.0727l.0363-.0363c.1091-.1091.4364-.4728.4-.5091-.1091-.1091-.1454.1091-.2909 0-.0727-.0728-.2909-.4364-.3273-.5091-.0727-.1091.1455-.2182.2182-.2546.1818-.1091.7637-.2909.8364.0728 0 .0727-.0727.1454-.0364.1818 0 0 .0364.0727.0728.0363l.7636-.9454-.0727-.0727c-.1819.1818-2-.5455-2.1091-.6546-.0364-.0727-.0364-.2909-.1091-.2909Zm-.0727.9455c.2909.109.5454.2181.8363.3636-.0727.0364-.1454.0727-.2182.1091-.0727.0363-.1454.1091-.2181.1818l-.4-.6545Zm-2.4 2.8c-.4-.0364-.8.1454-1.091.4727-.4363.5454-.4 1.3454.1455 1.7818.5455.4364 1.3455.3273 1.7818-.1818.4364-.5455.4-1.3455-.1454-1.7818-.1819-.1455-.4364-.2546-.6909-.2909Zm-.5091.5818c.2181 0 .4727.1454.6181.2545.291.1818.8.6182.5455.9818 0-.0363.0364-.0363-.0364.0364-.2909.2909-.8.0364-1.0545-.1818-.2546-.1818-.7273-.6182-.4364-.9818.1091-.0728.2182-.1091.3637-.1091Zm-1.1273 1.5636c-.4364-.0364-.8727.1818-1.2.5818-.2182.2909-.4727.5455-.6909.8364.0727.1091.1818-.0364.2909.0363.1091.0728 1.4909 1.2 1.4909 1.2728.0364.1091-.0727.1454.0364.2182.0363.0363 1.0545-1.2364 1.1636-1.4546.1455-.4.0364-.8727-.2909-1.1636.0364.0363.0727.0363 0 0-.2909-.2182-.5455-.3273-.8-.3273Zm-.4.5818h.1091c.5091.1455 1.2363.7637.7636 1.3091-.0727.0727 0 0-.1454.1455-.0728.0727-1.5273-1.0909-1.4546-1.1637.1455-.1818.4727-.3272.7273-.2909Z" fill="#fff"/></svg>